# xmcd
# Track frame offsets:
# 150
# 17222
# 29282
# 43179
# 63249
# 87527
# 104317
# 127491
# 137945
# 155811
#
# Disc length: 2296 seconds
# Revision: 0
# Processed by: cddbd v1.5.2PL0 Copyright (c) Steve Scherf et al.
# Submitted via: VisiTrax 2.10.2.252 - For more info visit www.synapsa.com
#
DISCID=9508f60a
DTITLE=Travis "Moonchild" Haddix - Mean ole yesterday
DYEAR=2007
DGENRE=Blues
TTITLE0=B.B. King - Don´t make your move too soon
TTITLE1=Robert JR. Lockwood - Big leg woman
TTITLE2=Tyrone Davis - Turn back the hands of time
TTITLE3=Ray Chales - Roch House
TTITLE4=Travis Haddix - Mean ole yesterday
TTITLE5=Travis Haddix - Diek for dinner
TTITLE6=Travis Haddix - Open book
TTITLE7=Travis Haddix - Summer Santa Claus
TTITLE8=Travis Haddix - Suger in my tank
TTITLE9=Travis Haddix - O-h-i-o or Oh-ten
EXTD=
EXTT0=
EXTT1=
EXTT2=
EXTT3=
EXTT4=
EXTT5=
EXTT6=
EXTT7=
EXTT8=
EXTT9=
PLAYORDER=
